#!OML:ASF Y:\EmotionMaleHayes\Project 1\Capture day 1\Session 1\Male1.ASF
:FULLY-SPECIFIED
:DEGREES
523
root 53.181 17.3332 -12.5862 173.241 42.4427 -185.338
lowerback 17.3722 10.2723 8.16996
upperback 3.48999 15.4505 2.20524
thorax -4.22782 7.66609 -5.04881
lowerneck -23.3953 -13.5217 -6.69087
upperneck 10.7367 -18.274 12.5121
head 8.94404 -7.51167 2.47581
rclavicle 1.82882e-014 6.52014e-014
rhumerus 57.7646 57.3397 -56.7518
rradius 88.6203
rwrist -23.9214
rhand -14.8154 -21.7771
rfingers 7.12502
rthumb 11.3428 -51.4504
lclavicle 1.82882e-014 6.52014e-014
lhumerus -27.1727 41.7118 -8.65972
lradius 43.3645
lwrist 30.8757
lhand -37.3935 -14.6885
lfingers 7.12502
lthumb -10.4543 15.0316
rfemur 11.2336 -20.5418 28.3144
rtibia 47.4977
rfoot -2.27525 -7.52461
rtoes 20.8295
lfemur -19.7619 11.3415 -31.0921
ltibia 31.6587
lfoot 16.6638 -9.26935
ltoes 2.77211
524
root 53.4402 17.1923 -12.6186 172.536 42.7194 -185.662
lowerback 17.1934 10.3344 7.67566
upperback 3.56732 15.4332 2.33113
thorax -4.216 7.66654 -4.63949
lowerneck -23.8393 -13.1754 -5.81251
upperneck 11.6298 -17.9162 11.1062
head 9.04772 -7.41746 1.92842
rclavicle 2.38542e-015 -2.06736e-014
rhumerus 57.8514 56.8999 -56.7011
rradius 90.5466
rwrist -24.8947
rhand -13.8495 -21.5364
rfingers 7.12502
rthumb 12.2742 -51.1562
lclavicle 2.38542e-015 -2.06736e-014
lhumerus -26.7099 42.3378 -9.26814
lradius 44.1872
lwrist 32.6146
lhand -39.3331 -16.9508
lfingers 7.12502
lthumb -12.3248 12.6659
rfemur 11.2382 -20.8429 26.5839
rtibia 50.5079
rfoot -2.85382 -7.329
rtoes 20.6048
lfemur -18.1391 10.995 -31.4523
ltibia 31.392
lfoot 15.7345 -10.4759
ltoes 27.4093
525
root 53.7037 17.0375 -12.6519 171.499 43.0796 -186.378
lowerback 17.1694 10.3981 7.07472
upperback 3.60807 15.3927 2.20916
thorax -4.28311 7.64792 -4.45937
lowerneck -23.1988 -13.4633 -6.58516
upperneck 10.7811 -18.2402 12.5247
head 8.91673 -7.49452 2.48009
rclavicle 5.50634e-014 -2.22639e-014
rhumerus 57.6276 56.4171 -57.1554
rradius 92.3993
rwrist -25.6305
rhand -13.9296 -21.2942
rfingers 7.12502
rthumb 12.197 -50.9186
lclavicle 5.50634e-014 -2.22639e-014
lhumerus -26.4703 42.5553 -10.0959
lradius 46.1499
lwrist 34.5614
lhand -41.269 -18.9755
lfingers 7.12502
lthumb -14.1909 10.5197
rfemur 11.3098 -21.0738 24.3937
rtibia 53.6257
rfoot -3.91462 -7.33539
rtoes 19.3852
lfemur -16.5322 10.4574 -32.1319
ltibia 31.5393
lfoot 7.96277 -11.3084
ltoes 19.0553
526
root 53.9687 16.8816 -12.6619 171.632 43.0175 -185.609
lowerback 17.0431 10.2472 7.2303
upperback 3.53701 15.2412 2.51091
thorax -4.35607 7.56735 -4.19729
lowerneck -23.3772 -13.1609 -6.28558
upperneck 11.2074 -17.8699 11.9895
head 8.96897 -7.3467 2.3177
rclavicle -3.95581e-014 -1.74931e-014
rhumerus 57.2639 55.8537 -57.3775
rradius 94.2488
rwrist -26.4061
rhand -14.6317 -21.208
rfingers 7.12502
rthumb 11.52 -50.8714
lclavicle -3.95581e-014 -1.74931e-014
lhumerus -26.5654 42.1005 -10.715
lradius 48.0325
lwrist 37.1986
lhand -43.0392 -22.5167
lfingers 7.12502
lthumb -15.8961 6.85084
rfemur 11.0768 -21.7348 23.6003
rtibia 56.6632
rfoot -5.0114 -7.73858
rtoes 18.5058
lfemur -15.5117 8.23546 -31.3073
ltibia 33.187
lfoot 4.1864 -9.10469
ltoes 24.406
527
root 54.2301 16.7148 -12.6588 172.035 42.8413 -184.409
lowerback 17.0958 9.99691 7.7462
upperback 3.38384 15.046 2.80474
thorax -4.52312 7.45398 -4.15676
lowerneck -22.5423 -13.1025 -6.70087
upperneck 10.5001 -17.7497 12.8306
head 8.71514 -7.28137 2.71927
rclavicle -1.33981e-013 -3.49861e-014
rhumerus 56.7164 55.1838 -57.7905
rradius 95.9896
rwrist -27.1556
rhand -15.1284 -20.9712
rfingers 7.12502
rthumb 11.0409 -50.6609
lclavicle -1.33981e-013 -3.49861e-014
lhumerus -26.2018 41.8321 -11.0764
lradius 50.034
lwrist 39.3951
lhand -44.6355 -26.1023
lfingers 7.12502
lthumb -17.4329 3.13595
rfemur 10.8763 -22.3579 23.2296
rtibia 59.5108
rfoot -5.86746 -8.51933
rtoes 19.7647
lfemur -15.0456 6.11083 -30.1515
ltibia 35.0979
lfoot 0.213077 -8.12664
ltoes 23.0228
528
root 54.4826 16.5288 -12.669 171.611 43.0842 -184.156
lowerback 17.3112 9.90145 7.80026
upperback 3.33384 14.9597 2.85356
thorax -4.70075 7.39875 -4.17339
lowerneck -21.5182 -13.0039 -6.739
upperneck 9.62047 -17.6162 13.4296
head 8.31072 -7.24156 3.00118
rclavicle 1.00883e-013 1.11319e-014
rhumerus 56.0246 54.544 -58.505
rradius 97.5314
rwrist -27.7694
rhand -15.4293 -20.5775
rfingers 7.12502
rthumb 10.7507 -50.2824
lclavicle 1.00883e-013 1.11319e-014
lhumerus -25.5325 41.9439 -11.3616
lradius 51.8267
lwrist 40.6266
lhand -45.9251 -28.9031
lfingers 7.12502
lthumb -18.6736 0.220603
rfemur 11.0546 -22.4306 21.8293
rtibia 62.197
rfoot -6.6403 -9.24981
rtoes 22.3832
lfemur -14.5703 4.50965 -29.6626
ltibia 36.9287
lfoot -3.57712 -7.12156
ltoes 16.2943
529
root 54.7279 16.3392 -12.6755 171.116 43.4298 -184.037
lowerback 17.7 9.81606 7.84822
upperback 3.19486 14.8933 2.80057
thorax -5.03724 7.33632 -4.33773
lowerneck -20.6267 -12.8438 -6.40609
upperneck 8.91481 -17.4412 13.6234
head 7.90619 -7.19939 3.09802
rclavicle 6.97734e-014 -2.38542e-014
rhumerus 54.9877 53.854 -59.6582
rradius 98.9276
rwrist -28.3138
rhand -15.4443 -20.1125
rfingers 7.12502
rthumb 10.7362 -49.8182
lclavicle 6.97734e-014 -2.38542e-014
lhumerus -24.8494 41.9544 -11.5641
lradius 53.7685
lwrist 41.7011
lhand -46.9925 -31.6481
lfingers 7.12502
lthumb -19.7001 -2.62632
rfemur 11.2996 -22.155 20.4708
rtibia 64.7076
rfoot -7.83115 -10.0801
rtoes 25.0645
lfemur -14.1809 3.51708 -29.0447
ltibia 38.5785
lfoot -6.1823 -5.60048
ltoes 16.2778
530
root 54.9714 16.1557 -12.6514 170.859 43.4819 -183.644
lowerback 18.0639 9.66522 7.80524
upperback 3.11882 14.7429 2.92414
thorax -5.37417 7.24038 -4.25531
lowerneck -20.0722 -12.7151 -6.03018
upperneck 8.46936 -17.3006 13.5519
head 7.61488 -7.17383 3.07876
rclavicle 6.76862e-014 -3.81667e-014
rhumerus 54.0658 52.9566 -60.3859
rradius 100.313
rwrist -28.7795
rhand -15.4351 -19.5556
rfingers 7.12502
rthumb 10.7451 -49.2608
lclavicle 6.76862e-014 -3.81667e-014
lhumerus -24.2705 41.918 -11.3555
lradius 56.0071
lwrist 42.9328
lhand -47.9084 -35.1656
lfingers 7.12502
lthumb -20.5804 -6.23653
rfemur 11.0223 -22.1087 19.3976
rtibia 67.1933
rfoot -8.77765 -10.9827
rtoes 29.7188
lfemur -14.1038 2.75444 -28.1361
ltibia 40.5645
lfoot -8.40867 -4.3033
ltoes 12.8381
531
root 55.1907 15.9799 -12.6213 170.264 43.0733 -183.859
lowerback 18.4757 9.38757 7.45776
upperback 3.09007 14.36 2.94644
thorax -5.75455 7.03432 -4.08762
lowerneck -19.4963 -12.6765 -6.00779
upperneck 7.93798 -17.2214 13.7366
head 7.35787 -7.17088 3.18175
rclavicle -7.55382e-015 -3.02153e-014
rhumerus 53.2125 52.1334 -60.7765
rradius 101.658
rwrist -29.0168
rhand -15.6482 -19.0385
rfingers 7.12502
rthumb 10.5395 -48.7542
lclavicle -7.55382e-015 -3.02153e-014
lhumerus -23.8518 41.852 -10.8531
lradius 58.2444
lwrist 43.9502
lhand -48.4911 -39.0825
lfingers 7.12502
lthumb -21.1402 -10.2151
rfemur 10.4937 -22.3335 17.5785
rtibia 69.7477
rfoot -9.46996 -11.3264
rtoes 27.8229
lfemur -14.4309 1.13395 -28.0995
ltibia 43.3267
lfoot -11.1082 -3.08657
ltoes 9.1581
532
root 55.4281 15.8195 -12.5733 169.211 42.6408 -184.646
lowerback 19.0297 9.21997 6.44157
upperback 3.11777 13.9886 2.92165
thorax -6.28681 6.83965 -3.65233
lowerneck -19.1104 -12.633 -6.03469
upperneck 7.4951 -17.1319 13.9569
head 7.16879 -7.14727 3.29397
rclavicle -1.00287e-013 4.6118e-014
rhumerus 52.2345 51.4302 -61.1269
rradius 102.95
rwrist -29.0474
rhand -15.9598 -18.7175
rfingers 7.12502
rthumb 10.2389 -48.4483
lclavicle -1.00287e-013 4.6118e-014
lhumerus -23.5072 41.8124 -10.0839
lradius 60.6059
lwrist 44.6381
lhand -48.813 -42.7978
lfingers 7.12502
lthumb -21.4494 -13.9653
rfemur 9.97394 -22.2334 15.4682
rtibia 72.1625
rfoot -10.2001 -11.3503
rtoes 28.8036
lfemur -14.7477 -0.318475 -28.4058
ltibia 46.1426
lfoot -14.1085 -1.97539
ltoes 3.83121
